PathFileType	4	(X/Y/Z)	C:/Users/opensim2020/Desktop/walking_exp_matlab/subject01_walking14_straight_04.trc	
DataRate	CameraRate	NumFrames	NumMarkers	Units	OrigDataRate	OrigDataStartFrame	OrigNumFrames	
100.00	100.00	5	42	mm	100.00	2096	89	
Frame#	Time	LFHD			RFHD			LBHD			RBHD			C7			T10			CLAV			STRN			RBAK			LSHO			LUPA			LELB			LFRM			LWRA			LWRB			LFIN			RSHO			RUPA			RELB			RFRM			RWRA			RWRB			RFIN			LASI			RASI			LPSI			RPSI			LTHI			LKNE			LTIB			LANK			LHEE			LTOE			RTHI			RKNE			RTIB			RANK			RHEE			RTOE			*39			*40			*41			
		X1	Y1	Z1	X2	Y2	Z2	X3	Y3	Z3	X4	Y4	Z4	X5	Y5	Z5	X6	Y6	Z6	X7	Y7	Z7	X8	Y8	Z8	X9	Y9	Z9	X10	Y10	Z10	X11	Y11	Z11	X12	Y12	Z12	X13	Y13	Z13	X14	Y14	Z14	X15	Y15	Z15	X16	Y16	Z16	X17	Y17	Z17	X18	Y18	Z18	X19	Y19	Z19	X20	Y20	Z20	X21	Y21	Z21	X22	Y22	Z22	X23	Y23	Z23	X24	Y24	Z24	X25	Y25	Z25	X26	Y26	Z26	X27	Y27	Z27	X28	Y28	Z28	X29	Y29	Z29	X30	Y30	Z30	X31	Y31	Z31	X32	Y32	Z32	X33	Y33	Z33	X34	Y34	Z34	X35	Y35	Z35	X36	Y36	Z36	X37	Y37	Z37	X38	Y38	Z38	X39	Y39	Z39	X40	Y40	Z40	X41	Y41	Z41	X42	Y42	Z42	

23	0.220	-1058.93811	361.13248	1659.58875	-1162.95044	313.77795	1662.54102	-1103.60364	472.16275	1626.92725	-1215.07642	425.77609	1630.01147	-1120.67871	516.27936	1430.13220	-1113.86267	559.56384	1135.99988	-1134.46765	372.21619	1360.14648	-1130.53992	333.37076	1204.87463	-1182.20972	581.36395	1235.54968	-972.51190	418.79968	1401.48816	-870.81793	442.06030	1228.72632	-850.67651	450.29504	1076.34900	-848.28021	358.22488	998.09735	-891.35461	236.87733	947.67590	-863.93500	274.89041	910.98688	-862.88898	197.19859	882.11273	-1274.39368	456.26996	1395.51648	-1362.38770	546.79523	1204.81482	-1372.32678	552.20142	1082.68616	-1411.72449	556.21924	967.83514	-1409.25952	507.57773	832.43292	-1441.83875	552.99146	848.13458	-1454.44604	536.23810	764.21710	-1015.09430	383.87399	926.75488	-1229.24036	379.35379	938.23865	-1069.19653	567.16315	938.27972	-1214.83984	563.52972	946.51294	-958.79364	428.85593	584.46552	-966.13568	448.19028	450.66135	-954.81787	599.93933	344.43771	-1004.15173	775.89319	213.51215	-1057.21936	816.69324	238.14105	-1023.35535	748.97479	69.17471	-1295.68909	381.22281	608.04730	-1270.97583	339.49728	455.49432	-1279.66125	380.61896	282.50613	-1233.22485	392.92072	76.86773	-1182.44775	439.32602	38.11137	-1237.49243	251.77205	38.11324	-1143.89355	328.71964	1696.94165	-3101.98071	1973.13428	1023.51617	-3140.70313	2012.42578	1022.01807 
24	0.230	-1061.78442	347.86447	1661.27527	-1165.63806	300.10590	1663.76392	-1107.72180	458.94403	1628.95996	-1218.09094	412.00327	1631.24902	-1123.17847	502.80865	1431.92810	-1115.98572	546.68292	1137.72339	-1135.97144	359.10431	1361.69031	-1131.45496	320.39185	1206.24390	-1184.94397	568.17712	1237.30359	-974.29022	406.41998	1403.31360	-872.49744	432.30661	1230.99670	-853.30225	443.12057	1078.10876	-849.41046	353.75333	996.69159	-890.97748	233.26050	942.11932	-863.95050	273.15671	906.85748	-861.84827	196.58574	875.20135	-1276.40161	442.18625	1396.47998	-1365.10718	530.78607	1205.23743	-1375.04395	535.05865	1082.61572	-1413.88586	535.56317	967.10272	-1410.76941	482.75781	833.44830	-1443.55554	528.47400	847.41315	-1455.96899	508.87155	764.60846	-1016.04718	371.42758	928.36414	-1230.64124	366.73895	939.43231	-1070.90527	554.59460	939.52985	-1216.42517	551.03033	948.44812	-959.61798	407.70566	585.82117	-967.25769	423.69321	451.73410	-957.01703	576.42322	347.26349	-1007.47467	751.96289	217.67268	-1061.90198	792.62073	241.16716	-1023.19543	724.86401	73.12007	-1296.33362	375.48267	607.94446	-1271.69299	335.13681	454.82748	-1280.15747	378.71667	282.50000	-1233.14429	392.55157	76.96133	-1182.59692	439.19965	38.31730	-1237.41602	251.59372	37.87579	-1146.69971	314.96390	1698.31689	-3101.98145	1973.14124	1023.47284	-3140.81982	2012.46582	1022.05054 
25	0.240	-1064.40320	334.46701	1662.97253	-1168.10315	286.35004	1664.83484	-1110.49475	445.65775	1630.92981	-1220.61243	398.17215	1632.32190	-1125.44458	489.50754	1433.68787	-1118.25842	533.85291	1139.46204	-1137.35535	346.00037	1363.27490	-1132.18359	307.42950	1207.66150	-1187.62756	555.12170	1239.15393	-975.90173	394.04626	1405.08997	-873.87988	422.19724	1233.07227	-855.75012	435.92776	1079.81421	-850.50232	349.53964	995.16956	-890.54938	230.24684	936.39783	-863.98053	271.85953	902.69623	-860.74976	196.43045	868.41174	-1278.34204	428.09879	1397.53271	-1367.67102	514.75146	1205.82910	-1377.54675	517.92084	1082.68237	-1416.08228	514.69781	966.62823	-1412.11365	457.82440	834.92365	-1444.93250	503.54718	846.98218	-1457.44824	480.94949	765.33154	-1016.87750	359.61444	929.76727	-1232.15027	354.26996	940.39935	-1072.52612	542.19525	940.72699	-1217.89978	538.51709	950.26556	-960.36755	386.46130	588.16913	-968.24847	399.67465	454.26538	-959.42694	552.19965	349.78683	-1011.10864	726.82800	220.12746	-1066.41528	768.07599	242.57198	-1023.76025	698.74756	76.17430	-1296.56335	369.68176	608.03973	-1272.30908	330.95914	454.26331	-1280.70044	376.82013	282.30875	-1233.28308	392.41394	76.96400	-1182.60205	439.35074	38.52990	-1237.53174	251.41887	37.70377	-1149.50928	301.01160	1699.61279	-3101.97656	1973.19763	1023.53217	-3140.74683	2012.47815	1022.01086 
26	0.250	-1066.70850	321.06516	1664.55591	-1170.26709	272.62686	1665.91406	-1113.09729	432.04675	1632.57263	-1223.19690	384.52646	1633.65381	-1127.52063	476.32260	1435.29919	-1120.53821	521.07690	1141.11926	-1138.51855	332.87350	1364.74023	-1132.85083	294.51093	1209.02026	-1190.22229	542.06915	1240.99451	-977.33740	381.61545	1406.68103	-875.53979	412.80142	1235.18445	-858.23596	428.35327	1081.51636	-851.63751	345.54422	993.62939	-890.13885	227.71764	930.56494	-864.17310	270.83759	898.63507	-859.77075	196.88161	861.63104	-1280.02161	414.12457	1398.74780	-1370.14758	498.84760	1206.63171	-1379.85864	500.81613	1082.92932	-1418.07800	493.62308	966.51605	-1413.30835	432.37271	836.96954	-1446.39319	478.46170	847.21118	-1458.45288	452.71066	766.59692	-1018.08307	347.14917	931.53339	-1233.76013	342.01541	941.12335	-1073.96301	529.84558	941.92841	-1219.28589	526.15222	951.95807	-961.17987	365.28485	591.15881	-969.17444	376.28732	457.80084	-962.08313	527.41827	352.06699	-1014.69269	701.70496	221.78117	-1070.80444	743.14154	242.49310	-1025.13916	670.01733	78.18933	-1297.29053	362.98242	608.24603	-1273.28137	326.95828	453.79703	-1281.47607	375.11200	282.19421	-1233.49927	392.15283	76.89023	-1182.66040	439.65936	38.79314	-1237.57605	251.47678	37.50785	-1152.12231	287.08484	1700.74390	-3101.84570	1973.30908	1023.40082	-3140.75928	2012.51904	1021.95538 
27	0.260	-1068.66187	307.64429	1666.04333	-1172.23169	258.91907	1666.93274	-1115.47900	418.39929	1634.21985	-1225.15747	370.68552	1634.74890	-1129.52319	463.22729	1436.74573	-1122.87451	508.38724	1142.74573	-1139.55762	319.76883	1366.06812	-1133.37927	281.66992	1210.32544	-1192.85620	529.56812	1242.86780	-978.68628	369.29602	1408.09814	-877.03412	403.17355	1236.98352	-860.31793	420.83875	1083.34912	-852.40509	341.48633	992.32941	-889.56873	225.69293	924.74408	-864.23938	270.30563	894.39063	-858.67505	197.75160	854.85199	-1281.56897	400.15338	1400.07910	-1372.43726	482.98697	1207.66187	-1382.05481	483.79150	1083.28235	-1419.94360	472.54938	966.75293	-1414.30188	406.74161	839.56543	-1447.27576	452.92468	847.80896	-1459.38538	424.12518	768.41162	-1019.65094	334.31619	933.51013	-1235.68823	329.85550	941.90015	-1075.26025	517.47186	943.22998	-1220.52026	514.08386	953.44525	-962.13422	344.48129	594.42175	-970.09973	352.88242	461.49966	-964.68591	502.35587	354.11337	-1018.28412	675.64496	221.75357	-1075.21838	717.94647	240.99307	-1026.35730	639.73029	79.57130	-1298.16028	355.54504	608.29669	-1274.01196	323.22821	453.12216	-1282.36975	373.34323	282.25775	-1233.83557	392.00757	76.95732	-1183.06250	439.55511	39.16290	-1237.77258	251.27158	37.38600	-1154.14368	273.27667	1701.75903	-3101.97876	1973.16113	1023.59125	-3140.71411	2012.58923	1022.09387 
